<svg xmlns="http://www.w3.org/2000/svg" width="31.513" height="20.5" viewBox="0 0 31.513 20.5">
  <g id="icon_통장" transform="translate(-620.081 -174.708)">
    <path id="패스_9752" data-name="패스 9752" d="M716,593.082v12.225l-4.178,5.164a.582.582,0,0,0,.452.948H734.3a.582.582,0,0,0,.452-.216l2.77-5.9V593.082a.582.582,0,0,0-.582-.582H716.579A.582.582,0,0,0,716,593.082Z" transform="translate(-91.094 -417.292)" fill="#fff" stroke="#000" stroke-miterlimit="10" stroke-width="1"/>
    <line id="선_1497" data-name="선 1497" x2="20.784" transform="translate(625.094 187.632)" fill="none" stroke="#000" stroke-linecap="round" stroke-width="1"/>
    <line id="선_1498" data-name="선 1498" x2="3.757" transform="translate(627.874 181.118)" fill="none" stroke="#000" stroke-linecap="round" stroke-width="1"/>
    <line id="선_1499" data-name="선 1499" x2="7.045" transform="translate(627.776 179.239)" fill="none" stroke="#000" stroke-linecap="round" stroke-width="1"/>
  </g>
  <g id="그룹_9172" data-name="그룹 9172" transform="translate(-215.784 -403.5)">
    <circle id="타원_638" data-name="타원 638" cx="6" cy="6" r="6" transform="translate(235.297 412)" fill="#fff"/>
    <g id="타원_637" data-name="타원 637" transform="translate(236.297 413)" fill="#fff" stroke="#000" stroke-width="1">
      <circle cx="5" cy="5" r="5" stroke="none"/>
      <circle cx="5" cy="5" r="4.5" fill="none"/>
    </g>
    <g id="그룹_5088" data-name="그룹 5088" transform="translate(0 0.406)">
      <text id="W" transform="translate(241.297 419.594)" stroke="#000" stroke-width="0.2" font-size="5.2" font-family="Roboto-Bold, Roboto" font-weight="700"><tspan x="-2.274" y="0">W</tspan></text>
      <rect id="사각형_26414" data-name="사각형 26414" width="6" height="0.8" transform="translate(238.297 416.765)"/>
    </g>
  </g>
</svg>
