<svg xmlns="http://www.w3.org/2000/svg" width="48.685" height="13.865" viewBox="0 0 48.685 13.865">
  <g id="LOGO_차이" transform="translate(-585.134 -388.478)">
    <path id="패스_9789" data-name="패스 9789" d="M722.681,393.349v4.756h-4.9v-4.756h-3.817v12.766h3.817v-4.756h4.9v4.756H726.5V393.349Z" transform="translate(-114.286 -4.321)"/>
    <rect id="사각형_29241" data-name="사각형 29241" width="3.817" height="6.109" transform="translate(628.761 395.684)"/>
    <path id="패스_9790" data-name="패스 9790" d="M594.956,397.037a3.318,3.318,0,1,1,0-3.254H598.8a6.933,6.933,0,1,0,0,3.254Z" transform="translate(0 0)"/>
    <circle id="타원_874" data-name="타원 874" cx="3.149" cy="3.149" r="3.149" transform="translate(612.921 396.044)" fill="#e10600"/>
    <circle id="타원_875" data-name="타원 875" cx="3.149" cy="3.149" r="3.149" transform="translate(627.52 388.479)" fill="#e10600"/>
    <path id="패스_9791" data-name="패스 9791" d="M885.1,393.349H880.46l5.161,12.766h4.641Z" transform="translate(-261.991 -4.321)"/>
  </g>
</svg>
